{
  "accessors": [
    {
      "bufferView": 3,
      "componentType": 5126,
      "count": 1689,
      "max": [
        101.7947998046875,
        23.298332214355469,
        110.47309112548828
      ],
      "min": [
        -99.4061279296875,
        -23.319404602050781,
        -110.50809478759766
      ],
      "type": "VEC3"
    },
    {
      "bufferView": 3,
      "byteOffset": 20268,
      "componentType": 5126,
      "count": 1689,
      "max": [
        0.99710386991500854,
        0.9996713399887085,
        0.99962526559829712
      ],
      "min": [
        -0.9945073127746582,
        -0.99998199939727783,
        -0.99939775466918945
      ],
      "type": "VEC3"
    },
    {
      "bufferView": 4,
      "componentType": 5126,
      "count": 1689,
      "max": [
        0.99997127056121826,
        0.99836850166320801,
        0.98520368337631226,
        1
      ],
      "min": [
        -0.99983441829681396,
        -0.99696910381317139,
        -0.9999890923500061,
        -1
      ],
      "type": "VEC4"
    },
    {
      "bufferView": 2,
      "componentType": 5126,
      "count": 1689,
      "max": [
        0.99596220254898071,
        0.99570685625076294
      ],
      "min": [
        0.0055247698910534382,
        0.0058555649593472481
      ],
      "type": "VEC2"
    },
    {
      "bufferView": 1,
      "componentType": 5125,
      "count": 8838,
      "max": [
        1688
      ],
      "min": [
        0
      ],
      "type": "SCALAR"
    },
    {
      "bufferView": 5,
      "componentType": 5126,
      "count": 18,
      "max": [
        1.0000002384185791,
        0.99933147430419922,
        0.023123282939195633,
        0,
        0.1353602260351181,
        1.0000002384185791,
        1,
        0,
        0.99708271026611328,
        0.8020433783531189,
        1,
        0,
        38.07049560546875,
        66.186874389648438,
        9.1124477386474609,
        1
      ],
      "min": [
        -0.8020433783531189,
        -0.99351578950881958,
        -1.6298970422212733e-06,
        0,
        -0.99933147430419922,
        -0.025882463902235031,
        -1.6175688699604507e-07,
        0,
        -0.99036657810211182,
        -0.34622308611869812,
        -0.085325688123703003,
        0,
        -98.654006958007812,
        -61.903530120849609,
        -1.4214441534932121e-06,
        1
      ],
      "type": "MAT4"
    },
    {
      "bufferView": 0,
      "componentType": 5123,
      "count": 1689,
      "max": [
        17,
        17,
        13,
        13
      ],
      "min": [
        1,
        1,
        1,
        1
      ],
      "type": "VEC4"
    },
    {
      "bufferView": 4,
      "byteOffset": 27024,
      "componentType": 5126,
      "count": 1689,
      "max": [
        1,
        0.5,
        0.33230066299438477,
        0.17567750811576843
      ],
      "min": [
        0,
        0,
        0,
        0
      ],
      "type": "VEC4"
    },
    {
      "bufferView": 6,
      "componentType": 5126,
      "count": 183,
      "max": [
        6.3333334922790527
      ],
      "min": [
        0
      ],
      "type": "SCALAR"
    },
    {
      "bufferView": 7,
      "componentType": 5126,
      "count": 183,
      "max": [
        4.0177376945059105e-23,
        2.5027139177221287e-23,
        -0.10273697227239609,
        0.99470853805541992
      ],
      "min": [
        -1.3099432128230227e-23,
        -2.0592467668378174e-23,
        -0.32946431636810303,
        0.94416803121566772
      ],
      "type": "VEC4"
    },
    {
      "bufferView": 6,
      "byteOffset": 732,
      "componentType": 5126,
      "count": 183,
      "max": [
        6.3333334922790527
      ],
      "min": [
        0
      ],
      "type": "SCALAR"
    },
    {
      "bufferView": 7,
      "byteOffset": 2928,
      "componentType": 5126,
      "count": 183,
      "max": [
        4.1752620805191043e-10,
        7.9894304505501168e-09,
        0.18092179298400879,
        0.99999982118606567
      ],
      "min": [
        -1.4454623054049875e-09,
        7.8575856932161514e-09,
        -0.052259813994169235,
        0.9834975004196167
      ],
      "type": "VEC4"
    },
    {
      "bufferView": 6,
      "byteOffset": 1464,
      "componentType": 5126,
      "count": 154,
      "max": [
        6.3333334922790527
      ],
      "min": [
        0
      ],
      "type": "SCALAR"
    },
    {
      "bufferView": 7,
      "byteOffset": 5856,
      "componentType": 5126,
      "count": 154,
      "max": [
        0.010042843408882618,
        0.10354310274124146,
        0.025246953591704369,
        1
      ],
      "min": [
        -0.0096468813717365265,
        -0.14935271441936493,
        1.3877786153453232e-17,
        0.98853039741516113
      ],
      "type": "VEC4"
    },
    {
      "bufferView": 6,
      "byteOffset": 2080,
      "componentType": 5126,
      "count": 156,
      "max": [
        6.3333334922790527
      ],
      "min": [
        0
      ],
      "type": "SCALAR"
    },
    {
      "bufferView": 7,
      "byteOffset": 8320,
      "componentType": 5126,
      "count": 156,
      "max": [
        0.029453523457050323,
        0.14810264110565186,
        -0.14521360397338867,
        0.98681694269180298
      ],
      "min": [
        -0.04985540360212326,
        -0.2513086199760437,
        -0.19766825437545776,
        0.95400738716125488
      ],
      "type": "VEC4"
    },
    {
      "bufferView": 6,
      "byteOffset": 2704,
      "componentType": 5126,
      "count": 152,
      "max": [
        6.3333334922790527
      ],
      "min": [
        0
      ],
      "type": "SCALAR"
    },
    {
      "bufferView": 7,
      "byteOffset": 10816,
      "componentType": 5126,
      "count": 152,
      "max": [
        0.6541861891746521,
        0.52079874277114868,
        0.29042097926139832,
        0.69407474994659424
      ],
      "min": [
        -0.64185893535614014,
        -0.49944514036178589,
        -0.60436242818832397,
        -0.4956737756729126
      ],
      "type": "VEC4"
    },
    {
      "bufferView": 6,
      "byteOffset": 3312,
      "componentType": 5126,
      "count": 154,
      "max": [
        6.3333334922790527
      ],
      "min": [
        0
      ],
      "type": "SCALAR"
    },
    {
      "bufferView": 7,
      "byteOffset": 13248,
      "componentType": 5126,
      "count": 154,
      "max": [
        0.019909275695681572,
        0.16001509130001068,
        -2.0816681711721685e-17,
        1
      ],
      "min": [
        -0.02061200886964798,
        -0.16488705575466156,
        -0.026088586077094078,
        0.98594719171524048
      ],
      "type": "VEC4"
    },
    {
      "bufferView": 6,
      "byteOffset": 3928,
      "componentType": 5126,
      "count": 156,
      "max": [
        6.3333334922790527
      ],
      "min": [
        0
      ],
      "type": "SCALAR"
    },
    {
      "bufferView": 7,
      "byteOffset": 15712,
      "componentType": 5126,
      "count": 156,
      "max": [
        0.048681080341339111,
        0.15102137625217438,
        0.18511158227920532,
        0.99018943309783936
      ],
      "min": [
        -0.027921563014388084,
        -0.26422321796417236,
        0.1267344206571579,
        0.9538760781288147
      ],
      "type": "VEC4"
    },
    {
      "bufferView": 6,
      "byteOffset": 4552,
      "componentType": 5126,
      "count": 152,
      "max": [
        6.3333334922790527
      ],
      "min": [
        0
      ],
      "type": "SCALAR"
    },
    {
      "bufferView": 7,
      "byteOffset": 18208,
      "componentType": 5126,
      "count": 152,
      "max": [
        0.69444388151168823,
        0.49469566345214844,
        0.56382095813751221,
        0.65503448247909546
      ],
      "min": [
        -0.60857635736465454,
        -0.63632768392562866,
        -0.34662550687789917,
        -0.49428653717041016
      ],
      "type": "VEC4"
    },
    {
      "bufferView": 6,
      "byteOffset": 5160,
      "componentType": 5126,
      "count": 152,
      "max": [
        6.3333334922790527
      ],
      "min": [
        0
      ],
      "type": "SCALAR"
    },
    {
      "bufferView": 7,
      "byteOffset": 20640,
      "componentType": 5126,
      "count": 152,
      "max": [
        0.26041015982627869,
        0.68280458450317383,
        0.68391764163970947,
        -0.1837877482175827
      ],
      "min": [
        0.17960131168365479,
        0.65580129623413086,
        0.6574089527130127,
        -0.26443266868591309
      ],
      "type": "VEC4"
    },
    {
      "bufferView": 6,
      "byteOffset": 5768,
      "componentType": 5126,
      "count": 152,
      "max": [
        6.3333334922790527
      ],
      "min": [
        0
      ],
      "type": "SCALAR"
    },
    {
      "bufferView": 7,
      "byteOffset": 23072,
      "componentType": 5126,
      "count": 152,
      "max": [
        -0.20162810385227203,
        0.67895877361297607,
        0.67775076627731323,
        0.27619943022727966
      ],
      "min": [
        -0.28013443946838379,
        0.65093308687210083,
        0.64924931526184082,
        0.19752202928066254
      ],
      "type": "VEC4"
    }
  ],
  "animations": [
    {
      "channels": [
        {
          "sampler": 0,
          "target": {
            "node": 12,
            "path": "rotation"
          }
        },
        {
          "sampler": 1,
          "target": {
            "node": 14,
            "path": "rotation"
          }
        },
        {
          "sampler": 2,
          "target": {
            "node": 18,
            "path": "rotation"
          }
        },
        {
          "sampler": 3,
          "target": {
            "node": 17,
            "path": "rotation"
          }
        },
        {
          "sampler": 4,
          "target": {
            "node": 16,
            "path": "rotation"
          }
        },
        {
          "sampler": 5,
          "target": {
            "node": 21,
            "path": "rotation"
          }
        },
        {
          "sampler": 6,
          "target": {
            "node": 20,
            "path": "rotation"
          }
        },
        {
          "sampler": 7,
          "target": {
            "node": 19,
            "path": "rotation"
          }
        },
        {
          "sampler": 8,
          "target": {
            "node": 22,
            "path": "rotation"
          }
        },
        {
          "sampler": 9,
          "target": {
            "node": 24,
            "path": "rotation"
          }
        }
      ],
      "name": "Take 001",
      "samplers": [
        {
          "input": 8,
          "interpolation": "LINEAR",
          "output": 9
        },
        {
          "input": 10,
          "interpolation": "LINEAR",
          "output": 11
        },
        {
          "input": 12,
          "interpolation": "LINEAR",
          "output": 13
        },
        {
          "input": 14,
          "interpolation": "LINEAR",
          "output": 15
        },
        {
          "input": 16,
          "interpolation": "LINEAR",
          "output": 17
        },
        {
          "input": 18,
          "interpolation": "LINEAR",
          "output": 19
        },
        {
          "input": 20,
          "interpolation": "LINEAR",
          "output": 21
        },
        {
          "input": 22,
          "interpolation": "LINEAR",
          "output": 23
        },
        {
          "input": 24,
          "interpolation": "LINEAR",
          "output": 25
        },
        {
          "input": 26,
          "interpolation": "LINEAR",
          "output": 27
        }
      ]
    }
  ],
  "asset": {
    "extras": {
      "author": "josluat91 (https://sketchfab.com/josluat91)",
      "license": "SKETCHFAB Standard (https://sketchfab.com/licenses)",
      "source": "https://sketchfab.com/models/10174c350b224583a825132229c30eda",
      "title": "Green Turtle"
    },
    "generator": "Sketchfab-3.19.6",
    "version": "2.0"
  },
  "bufferViews": [
    {
      "buffer": 0,
      "byteLength": 13512,
      "byteOffset": 0,
      "byteStride": 8,
      "name": "shortBufferViews",
      "target": 34962
    },
    {
      "buffer": 0,
      "byteLength": 35352,
      "byteOffset": 13512,
      "name": "floatBufferViews",
      "target": 34963
    },
    {
      "buffer": 0,
      "byteLength": 13512,
      "byteOffset": 48864,
      "byteStride": 8,
      "name": "floatBufferViews",
      "target": 34962
    },
    {
      "buffer": 0,
      "byteLength": 40536,
      "byteOffset": 62376,
      "byteStride": 12,
      "name": "floatBufferViews",
      "target": 34962
    },
    {
      "buffer": 0,
      "byteLength": 54048,
      "byteOffset": 102912,
      "byteStride": 16,
      "name": "floatBufferViews",
      "target": 34962
    },
    {
      "buffer": 0,
      "byteLength": 1152,
      "byteOffset": 156960,
      "byteStride": 64,
      "name": "floatBufferViews"
    },
    {
      "buffer": 0,
      "byteLength": 6376,
      "byteOffset": 158112,
      "name": "floatBufferViews"
    },
    {
      "buffer": 0,
      "byteLength": 25504,
      "byteOffset": 164488,
      "byteStride": 16,
      "name": "floatBufferViews"
    }
  ],
  "buffers": [
    {
      "byteLength": 189992,
      "uri": "scene.bin"
    }
  ],
  "images": [
    {
      "uri": "textures/01_-_Default_baseColor.png"
    },
    {
      "uri": "textures/01_-_Default_normal.png"
    }
  ],
  "materials": [
    {
      "doubleSided": true,
      "emissiveFactor": [
        0,
        0,
        0
      ],
      "name": "01_-_Default",
      "normalTexture": {
        "index": 1,
        "scale": 0.2029344512,
        "texCoord": 0
      },
      "pbrMetallicRoughness": {
        "baseColorFactor": [
          0.84999999999999998,
          0.84999999999999998,
          0.84999999999999998,
          1
        ],
        "baseColorTexture": {
          "index": 0,
          "texCoord": 0
        },
        "metallicFactor": 0.050000000000000003,
        "roughnessFactor": 0.25
      }
    }
  ],
  "meshes": [
    {
      "name": "objRetopoObject1_01 - Default_0",
      "primitives": [
        {
          "attributes": {
            "JOINTS_0": 6,
            "NORMAL": 1,
            "POSITION": 0,
            "TANGENT": 2,
            "TEXCOORD_0": 3,
            "WEIGHTS_0": 7
          },
          "indices": 4,
          "material": 0,
          "mode": 4
        }
      ]
    }
  ],
  "nodes": [
    {
      "children": [
        1
      ],
      "name": "RootNode (gltf orientation matrix)",
      "rotation": [
        -0.70710678118654746,
        -0,
        -0,
        0.70710678118654757
      ]
    },
    {
      "children": [
        2
      ],
      "name": "RootNode (model correction matrix)"
    },
    {
      "children": [
        3
      ],
      "matrix": [
        1,
        0,
        0,
        0,
        0,
        0,
        1,
        0,
        0,
        -1,
        0,
        0,
        0,
        0,
        0,
        1
      ],
      "name": "1fe5efdfdb274e179e19af346e0dac31.fbx"
    },
    {
      "children": [
        4
      ],
      "name": ""
    },
    {
      "children": [
        5
      ],
      "name": "RootNode"
    },
    {
      "children": [
        6,
        8,
        7,
        26
      ],
      "name": ""
    },
    {
      "children": [
        9,
        16,
        19,
        22,
        24
      ],
      "name": "_rootJoint"
    },
    {
      "matrix": [
        1,
        -1.0722652266825557e-18,
        -2.1175823681357508e-22,
        0,
        -2.1175823681350942e-22,
        6.123233995736766e-17,
        -1,
        0,
        1.0722652266825557e-18,
        1,
        6.123233995736766e-17,
        0,
        1.1943397521972656,
        -0.010535240173339844,
        -0.017501831054687497,
        1
      ],
      "name": ""
    },
    {
      "mesh": 0,
      "name": "",
      "skin": 0
    },
    {
      "children": [
        10
      ],
      "name": "Bone01_08",
      "rotation": [
        5.8459528418097761e-07,
        -5.2220184443285689e-07,
        -0.69406020641326904,
        0.71991699934005737
      ],
      "scale": [
        0.99999994039535522,
        0.99999994039535522,
        1
      ],
      "translation": [
        44.034751892089844,
        39.706989288330078,
        1.7356476291752188e-06
      ]
    },
    {
      "children": [
        11
      ],
      "name": "Bone02_05",
      "rotation": [
        -5.3798089538759086e-07,
        5.7332636060891673e-07,
        0.68427103757858276,
        0.72922784090042114
      ],
      "scale": [
        1.0000001192092896,
        1.0000001192092896,
        1
      ],
      "translation": [
        40.560268402099609,
        -3.814697265625e-06,
        -3.5754055716097355e-07
      ]
    },
    {
      "children": [
        12,
        14
      ],
      "name": "Bone03_06",
      "rotation": [
        -3.9211131563909873e-10,
        2.9022743319728761e-08,
        0.013509252108633518,
        0.99990874528884888
      ],
      "scale": [
        0.99999964237213135,
        0.99999964237213135,
        1
      ],
      "translation": [
        18.296028137207031,
        3.6954879760742188e-06,
        2.9558577807620168e-12
      ]
    },
    {
      "children": [
        13
      ],
      "name": "Bone04_07",
      "rotation": [
        -7.6606326788124885e-16,
        -3.4691390554772873e-15,
        -0.21562762558460236,
        0.97647577524185181
      ],
      "scale": [
        0.99999994039535522,
        0.99999994039535522,
        1
      ],
      "translation": [
        16.312118530273438,
        -1.3113021850585938e-06,
        2.0889956431346945e-12
      ]
    },
    {
      "name": "Bone05_00",
      "rotation": [
        1.9852333123550854e-23,
        8.6979576589566423e-40,
        4.3813292048708468e-17,
        1
      ],
      "scale": [
        1.0000001192092896,
        1.0000001192092896,
        1
      ],
      "translation": [
        15.259590148925781,
        7.62939453125e-06,
        7.585575190205418e-07
      ]
    },
    {
      "children": [
        15
      ],
      "name": "Bone06_01",
      "rotation": [
        -5.4198451282516658e-10,
        7.9710273936939302e-09,
        0.067836783826351166,
        0.99769645929336548
      ],
      "translation": [
        16.312118530273438,
        -1.5139579772949219e-05,
        1.6910917111090384e-12
      ]
    },
    {
      "name": "Bone07_02",
      "rotation": [
        -1.9852334701272664e-23,
        8.8817841970012523e-16,
        7.4505805969238281e-09,
        1
      ],
      "translation": [
        16.664573669433594,
        -9.5367431640625e-07,
        2.1600499167107046e-12
      ]
    },
    {
      "children": [
        17
      ],
      "name": "Bone08_03",
      "rotation": [
        -0.36707770824432373,
        -0.13513052463531494,
        -0.60436242818832397,
        0.69407474994659424
      ],
      "scale": [
        0.99999988079071045,
        0.99999988079071045,
        1
      ],
      "translation": [
        46.832279205322266,
        -6.6462640762329102,
        20.921058654785156
      ]
    },
    {
      "children": [
        18
      ],
      "name": "Bone09_04",
      "rotation": [
        -1.4607143938860645e-08,
        2.9454860772659686e-09,
        -0.19766825437545776,
        0.98026895523071289
      ],
      "scale": [
        1.0000001192092896,
        1.0000001192092896,
        1
      ],
      "translation": [
        36.248321533203125,
        -3.814697265625e-06,
        -5.7220458984375e-06
      ]
    },
    {
      "name": "Bone10_09",
      "rotation": [
        -2.0816681711721685e-17,
        1.4901159417490817e-08,
        -6.9388926631363095e-18,
        1
      ],
      "scale": [
        1.0000001192092896,
        1,
        1
      ],
      "translation": [
        36.471481323242188,
        -7.62939453125e-06,
        1.9073486328125e-06
      ]
    },
    {
      "children": [
        20
      ],
      "name": "Bone11_010",
      "rotation": [
        0.69444394111633301,
        -0.63632774353027344,
        -0.13322059810161591,
        -0.30836194753646851
      ],
      "translation": [
        50.871162414550781,
        -6.6462640762329102,
        -30.772266387939453
      ]
    },
    {
      "children": [
        21
      ],
      "name": "Bone12_011",
      "rotation": [
        -1.8050599903673969e-09,
        -3.0666452488503637e-08,
        0.18511159718036652,
        0.98271751403808594
      ],
      "scale": [
        1,
        1.0000001192092896,
        1
      ],
      "translation": [
        33.191848754882812,
        7.62939453125e-06,
        -3.814697265625e-06
      ]
    },
    {
      "name": "Bone13_012",
      "rotation": [
        -7.4505805969238281e-09,
        -2.9802322387695312e-08,
        7.4505805969238281e-09,
        1
      ],
      "translation": [
        31.106781005859375,
        -3.814697265625e-06,
        5.7220458984375e-06
      ]
    },
    {
      "children": [
        23
      ],
      "name": "Bone14_013",
      "rotation": [
        0.17960140109062195,
        0.65580129623413086,
        0.68391764163970947,
        -0.26443275809288025
      ],
      "scale": [
        0.99999994039535522,
        0.99999994039535522,
        1
      ],
      "translation": [
        -60.771953582763672,
        -9.1124477386474609,
        24.190399169921875
      ]
    },
    {
      "name": "Bone15_014",
      "rotation": [
        -1.6257541979314283e-09,
        7.4505797087454084e-09,
        -6.0074526686548779e-08,
        1
      ],
      "scale": [
        1.0000001192092896,
        1,
        1.0000001192092896
      ],
      "translation": [
        33.550369262695312,
        7.62939453125e-06,
        9.5367431640625e-07
      ]
    },
    {
      "children": [
        25
      ],
      "name": "Bone16_015",
      "rotation": [
        -0.28013446927070618,
        0.67895883321762085,
        0.6492493748664856,
        0.19752205908298492
      ],
      "translation": [
        -62.489513397216797,
        -9.1124477386474609,
        -25.619609832763672
      ]
    },
    {
      "name": "Bone17_016",
      "rotation": [
        -2.0679515313825692e-25,
        -3.7252902984619141e-09,
        -5.5511151231257827e-17,
        1
      ],
      "translation": [
        34.160331726074219,
        5.7220458984375e-06,
        4.76837158203125e-07
      ]
    },
    {
      "name": "objRetopoObject1",
      "rotation": [
        -0.7071068286895752,
        -0,
        0,
        0.7071068286895752
      ],
      "translation": [
        1.1943397521972656,
        -0.010535240173339844,
        -0.0175018310546875
      ]
    }
  ],
  "samplers": [
    {
      "magFilter": 9729,
      "minFilter": 9987,
      "wrapS": 10497,
      "wrapT": 10497
    }
  ],
  "scene": 0,
  "scenes": [
    {
      "name": "OSG_Scene",
      "nodes": [
        0
      ]
    }
  ],
  "skins": [
    {
      "inverseBindMatrices": 5,
      "joints": [
        6,
        9,
        10,
        11,
        12,
        13,
        14,
        15,
        16,
        17,
        18,
        19,
        20,
        21,
        22,
        23,
        24,
        25
      ],
      "skeleton": 6
    }
  ],
  "textures": [
    {
      "sampler": 0,
      "source": 0
    },
    {
      "sampler": 0,
      "source": 1
    }
  ]
}

